<svg width="20" height="20" viewBox="0 0 20 20" fill="none" xmlns="http://www.w3.org/2000/svg">
<mask id="mask0_655_195" style="mask-type:alpha" maskUnits="userSpaceOnUse" x="0" y="0" width="20" height="20">
<rect width="20" height="20" fill="#D9D9D9"/>
</mask>
<g mask="url(#mask0_655_195)">
<path d="M4.41178 15.5882H12.0588V13.8236H4.41178V15.5882ZM4.41178 10.8823H15.5882V9.11767H4.41178V10.8823ZM4.41178 6.17643H15.5882V4.41178H4.41178V6.17643ZM2.12671 20C1.53244 20 1.02941 19.7941 0.617649 19.3824C0.205883 18.9706 0 18.4676 0 17.8733V2.12671C0 1.53244 0.205883 1.02941 0.617649 0.617649C1.02941 0.205883 1.53244 0 2.12671 0H17.8733C18.4676 0 18.9706 0.205883 19.3824 0.617649C19.7941 1.02941 20 1.53244 20 2.12671V17.8733C20 18.4676 19.7941 18.9706 19.3824 19.3824C18.9706 19.7941 18.4676 20 17.8733 20H2.12671ZM2.12671 18.2353H17.8733C17.9638 18.2353 18.0468 18.1976 18.1222 18.1222C18.1976 18.0468 18.2353 17.9638 18.2353 17.8733V2.12671C18.2353 2.0362 18.1976 1.95323 18.1222 1.8778C18.0468 1.80239 17.9638 1.76468 17.8733 1.76468H2.12671C2.0362 1.76468 1.95323 1.80239 1.8778 1.8778C1.80239 1.95323 1.76468 2.0362 1.76468 2.12671V17.8733C1.76468 17.9638 1.80239 18.0468 1.8778 18.1222C1.95323 18.1976 2.0362 18.2353 2.12671 18.2353Z" fill="#2125FF"/>
</g>
</svg>
