<svg width="20" height="20" viewBox="0 0 20 20" fill="none" xmlns="http://www.w3.org/2000/svg">
<mask id="mask0_655_201" style="mask-type:alpha" maskUnits="userSpaceOnUse" x="0" y="0" width="20" height="20">
<rect width="20" height="20" fill="#D9D9D9"/>
</mask>
<g mask="url(#mask0_655_201)">
<path d="M10.4865 12.0915L16.2204 6.3576L15.0811 5.18506L10.4865 9.77967L8.16213 7.48861L7.02285 8.62788L10.4865 12.0915ZM5.73803 16.2163C5.19194 16.2163 4.72971 16.0271 4.35135 15.6487C3.97297 15.2703 3.78378 14.8081 3.78378 14.262V1.95428C3.78378 1.40819 3.97297 0.945951 4.35135 0.567571C4.72971 0.18919 5.19194 0 5.73803 0H18.0457C18.5918 0 19.054 0.18919 19.4324 0.567571C19.8108 0.945951 20 1.40819 20 1.95428V14.262C20 14.8081 19.8108 15.2703 19.4324 15.6487C19.054 16.0271 18.5918 16.2163 18.0457 16.2163H5.73803ZM5.73803 14.5946H18.0457C18.1289 14.5946 18.2051 14.56 18.2745 14.4907C18.3438 14.4214 18.3784 14.3451 18.3784 14.262V1.95428C18.3784 1.87111 18.3438 1.79487 18.2745 1.72555C18.2051 1.65625 18.1289 1.6216 18.0457 1.6216H5.73803C5.65486 1.6216 5.57863 1.65625 5.50933 1.72555C5.44001 1.79487 5.40535 1.87111 5.40535 1.95428V14.262C5.40535 14.3451 5.44001 14.4214 5.50933 14.4907C5.57863 14.56 5.65486 14.5946 5.73803 14.5946ZM1.95425 20C1.40818 20 0.945951 19.8108 0.567571 19.4324C0.18919 19.054 0 18.5918 0 18.0457V4.11646H1.6216V18.0457C1.6216 18.1289 1.65625 18.2052 1.72555 18.2745C1.79487 18.3438 1.8711 18.3784 1.95425 18.3784H15.8836V20H1.95425Z" fill="#2125FF"/>
</g>
</svg>
